<?xml version="1.0" encoding="UTF-8"?>
<svg xmlns="http://www.w3.org/2000/svg" xmlns:xlink="http://www.w3.org/1999/xlink" version="1.1" width="4281px" height="377px" style="shape-rendering:geometricPrecision; text-rendering:geometricPrecision; image-rendering:optimizeQuality; fill-rule:evenodd; clip-rule:evenodd">
  <g>
    <path style="opacity:0.963" fill="#000000" d="M -0.5,-0.5 C 0.5,-0.5 1.5,-0.5 2.5,-0.5C 25.2393,11.5897 49.5727,16.423 75.5,14C 84.9748,16.1408 91.3081,21.8074 94.5,31C 93.0998,51.8138 100.1,69.1472 115.5,83C 123.429,90.1054 131.763,96.6054 140.5,102.5C 143.291,101.27 145.958,99.7698 148.5,98C 149.451,97.2825 149.617,96.4491 149,95.5C 141.364,88.8648 134.03,81.8648 127,74.5C 110.768,52.9213 113.602,34.088 135.5,18C 152.038,6.02269 170.038,3.35603 189.5,10C 205.667,17.5114 210.167,29.3447 203,45.5C 198.565,50.774 193.398,55.1073 187.5,58.5C 185.893,42.7218 177.226,35.5552 161.5,37C 145.854,41.2996 137.687,51.4662 137,67.5C 141.401,76.9154 147.734,84.9154 156,91.5C 159.167,89 162.333,86.5 165.5,84C 173.717,82.2323 177.55,85.399 177,93.5C 172.454,97.7139 167.621,101.547 162.5,105C 187.357,124.691 212.357,144.191 237.5,163.5C 262.643,144.191 287.643,124.691 312.5,105C 308,101.167 303.5,97.3333 299,93.5C 298.36,85.3642 302.193,82.1975 310.5,84C 313.667,86.5 316.833,89 320,91.5C 327.843,84.9984 334.177,77.3317 339,68.5C 338.797,53.9392 331.964,43.7726 318.5,38C 301.174,34.1605 291.174,40.9938 288.5,58.5C 277.347,53.6878 270.68,45.3544 268.5,33.5C 271.91,17.9274 281.576,9.09411 297.5,7C 321.251,5.29432 340.417,13.7943 355,32.5C 362.522,47.8836 360.522,61.8836 349,74.5C 341.626,82.042 334.126,89.3753 326.5,96.5C 329.023,99.2584 332.023,101.258 335.5,102.5C 350.035,93.1362 362.535,81.4695 373,67.5C 375.219,63.7293 376.885,59.7293 378,55.5C 378.031,46.615 379.364,37.9483 382,29.5C 386.067,20.0485 393.234,14.8818 403.5,14C 428.406,16.1014 451.74,11.2681 473.5,-0.5C 474.833,-0.5 476.167,-0.5 477.5,-0.5C 468.983,10.1991 462.816,22.1991 459,35.5C 458.38,40.3538 458.547,45.1872 459.5,50C 460.123,59.7648 456.123,66.7648 447.5,71C 443.637,72.7322 439.637,74.0656 435.5,75C 410.108,73.7611 387.108,80.4277 366.5,95C 359.5,100.667 352.5,106.333 345.5,112C 348.333,114.167 351.167,116.333 354,118.5C 367.943,107.276 383.443,98.7763 400.5,93C 429.582,88.6257 451.416,99.1257 466,124.5C 469.727,149.294 458.894,162.294 433.5,163.5C 420.762,163.42 410.429,158.42 402.5,148.5C 409.919,147.651 416.919,145.484 423.5,142C 429.924,136.442 431.091,129.942 427,122.5C 411.732,107.383 394.565,104.549 375.5,114C 370.747,116.458 366.247,119.292 362,122.5C 361.333,123.167 361.333,123.833 362,124.5C 365.014,126.519 367.68,128.852 370,131.5C 370.755,134.497 369.922,136.997 367.5,139C 364.298,140.483 360.964,140.817 357.5,140C 352.667,136.5 347.833,133 343,129.5C 318.187,148.817 293.687,168.484 269.5,188.5C 293.687,208.516 318.187,228.183 343,247.5C 347.59,244.121 352.09,240.621 356.5,237C 362.53,234.133 367.03,235.633 370,241.5C 370.667,242.5 370.667,243.5 370,244.5C 367.198,247.666 364.031,250.499 360.5,253C 369.705,259.602 379.705,264.602 390.5,268C 406.417,268.789 419.25,262.956 429,250.5C 431.355,244.559 430.188,239.392 425.5,235C 418.331,231.055 410.664,228.722 402.5,228C 419.292,210.263 437.959,207.929 458.5,221C 470.289,233.198 471.456,246.365 462,260.5C 436.126,288.215 406.959,292.048 374.5,272C 367.228,267.781 360.395,262.948 354,257.5C 350.885,259.647 348.052,262.147 345.5,265C 358.124,276.617 372.124,286.284 387.5,294C 392.933,296.442 398.6,298.108 404.5,299C 415.846,299.94 427.179,300.94 438.5,302C 444.391,303.612 449.725,306.279 454.5,310C 457.748,314.772 459.415,320.105 459.5,326C 457.951,333.632 458.451,341.132 461,348.5C 465.588,358.229 470.755,367.563 476.5,376.5C 475.5,376.5 474.5,376.5 473.5,376.5C 450.381,364.5 425.714,359.666 399.5,362C 391.184,359.687 385.351,354.52 382,346.5C 380.031,338.978 379.031,331.311 379,323.5C 377.837,318.172 375.837,313.172 373,308.5C 362.527,294.356 349.86,282.69 335,273.5C 332.603,275.285 330.103,276.951 327.5,278.5C 326.479,279.002 326.312,279.668 327,280.5C 337.037,288.869 346.037,298.203 354,308.5C 362.581,324.041 360.914,338.375 349,351.5C 335.025,365.381 318.192,371.548 298.5,370C 284.659,368.481 275.159,361.315 270,348.5C 268.099,337.798 271.599,329.298 280.5,323C 283.078,320.793 285.911,318.96 289,317.5C 291.204,336.39 301.371,343.223 319.5,338C 332.422,332.302 338.922,322.469 339,308.5C 334.341,300.164 328.508,292.664 321.5,286C 320.5,285.333 319.5,285.333 318.5,286C 316.353,288.237 314.02,290.237 311.5,292C 305.128,293.977 300.795,291.977 298.5,286C 298.625,284.373 299.125,282.873 300,281.5C 304.908,278.455 308.908,274.788 312,270.5C 287.31,250.976 262.476,231.642 237.5,212.5C 212.909,231.713 188.409,251.046 164,270.5C 163.312,271.332 163.479,271.998 164.5,272.5C 170.057,276.226 174.724,280.726 178.5,286C 176.172,291.994 171.839,293.994 165.5,292C 162.833,290 160.167,288 157.5,286C 156.5,285.333 155.5,285.333 154.5,286C 147.085,292.36 141.252,299.86 137,308.5C 137.077,319.486 141.577,328.32 150.5,335C 162.32,342.612 173.153,341.445 183,331.5C 185.549,327.185 186.882,322.519 187,317.5C 195.333,321.833 201.667,328.167 206,336.5C 207.829,352.031 201.329,362.531 186.5,368C 159.31,374.049 137.477,365.882 121,343.5C 116.34,334.922 115.34,325.922 118,316.5C 125.773,302.386 136.107,290.386 149,280.5C 149.688,279.668 149.521,279.002 148.5,278.5C 145.897,276.951 143.397,275.285 141,273.5C 125.805,283.024 112.805,295.024 102,309.5C 97.1682,318.535 95.1682,328.202 96,338.5C 94.5422,350.614 88.0422,358.447 76.5,362C 50.8025,360.265 26.1358,364.432 2.5,374.5C 2.16667,374.167 1.83333,373.833 1.5,373.5C 7.63938,364.889 12.4727,355.556 16,345.5C 17.1927,335.883 17.8594,326.216 18,316.5C 18.7311,314.101 19.8978,311.935 21.5,310C 26.2754,306.279 31.6088,303.612 37.5,302C 48.8206,300.94 60.154,299.94 71.5,299C 84.2374,296.464 95.9041,291.464 106.5,284C 114.788,278.047 122.788,271.714 130.5,265C 127.948,262.147 125.115,259.647 122,257.5C 109.158,267.842 94.9911,276.008 79.5,282C 49.5383,288.932 26.3716,279.432 10,253.5C 4.18844,234.955 10.3551,222.122 28.5,215C 46.1467,209.716 61.1467,213.883 73.5,227.5C 64.8798,228.651 56.8798,231.484 49.5,236C 43.6176,245.074 45.2843,252.741 54.5,259C 68.0021,268.643 82.3354,270.31 97.5,264C 103.834,260.835 109.834,257.169 115.5,253C 111.969,250.499 108.802,247.666 106,244.5C 107.241,236.615 111.741,234.115 119.5,237C 123.91,240.621 128.41,244.121 133,247.5C 157.958,228.373 182.458,208.706 206.5,188.5C 182.313,168.484 157.813,148.817 133,129.5C 128.093,133.371 122.926,136.871 117.5,140C 111.556,141.198 107.556,139.031 105.5,133.5C 106.098,132.205 106.598,130.872 107,129.5C 109.921,127.623 112.754,125.623 115.5,123.5C 105.7,115.767 94.6996,110.434 82.5,107.5C 69.3267,108.163 58.16,113.163 49,122.5C 44.1124,129.074 44.6124,135.241 50.5,141C 57.5768,145.186 65.2435,147.686 73.5,148.5C 62.1302,162.098 47.7969,166.598 30.5,162C 8.31235,153.473 2.47901,138.639 13,117.5C 36.0669,90.2489 63.5669,84.7489 95.5,101C 104.604,106.441 113.438,112.274 122,118.5C 125.13,116.372 127.963,113.872 130.5,111C 117.986,100.825 104.653,91.8254 90.5,84C 84.3566,81.3966 78.0232,79.3966 71.5,78C 61.1475,77.1104 50.8142,76.1104 40.5,75C 19.2174,70.3506 11.384,57.184 17,35.5C 13.5226,22.8768 7.6893,11.5435 -0.5,1.5C -0.5,0.833333 -0.5,0.166667 -0.5,-0.5 Z"></path>
  </g>
  <g>
    <path style="opacity:0.963" fill="#000000" d="M 542.5,-0.5 C 543.5,-0.5 544.5,-0.5 545.5,-0.5C 568.659,11.2981 593.326,16.1314 619.5,14C 628.054,15.5546 633.888,20.3879 637,28.5C 639.751,36.2516 641.084,44.2516 641,52.5C 642.072,57.3835 643.739,62.0501 646,66.5C 656.805,80.9758 669.805,92.9758 685,102.5C 686.823,101.349 688.656,100.182 690.5,99C 692.007,98.1627 692.507,96.9961 692,95.5C 681.958,87.3912 673.291,78.0579 666,67.5C 659.113,55.9898 658.78,44.3232 665,32.5C 684.908,6.98175 709.741,0.481748 739.5,13C 754.167,26.3333 754.167,39.6667 739.5,53C 736.582,54.7088 733.748,56.5421 731,58.5C 729.829,42.6639 721.329,35.4972 705.5,37C 689.896,40.7311 681.729,50.5645 681,66.5C 685.138,76.4143 691.471,84.7477 700,91.5C 702.894,88.6386 706.061,86.1386 709.5,84C 717.717,82.2323 721.55,85.399 721,93.5C 716.5,97.3333 712,101.167 707.5,105C 732.079,124.867 756.912,144.367 782,163.5C 806.822,144.014 831.656,124.514 856.5,105C 850.479,101.309 845.479,96.642 841.5,91C 843.644,84.7595 847.977,82.4261 854.5,84C 857.667,86.5 860.833,89 864,91.5C 871.843,84.9984 878.177,77.3317 883,68.5C 883.288,53.5841 876.455,43.4174 862.5,38C 845.117,34.1006 835.284,40.9339 833,58.5C 824.386,54.3765 818.053,48.0431 814,39.5C 812.692,24.4528 819.192,14.2861 833.5,9C 859.603,3.30115 881.103,10.8012 898,31.5C 906.233,46.9256 904.567,61.259 893,74.5C 885.803,82.0314 878.303,89.1981 870.5,96C 873.052,98.8529 875.885,101.353 879,103.5C 888.605,96.398 897.772,88.7313 906.5,80.5C 918.938,68.944 924.772,54.6106 924,37.5C 925.917,23.5826 933.751,15.7492 947.5,14C 972.406,16.1014 995.74,11.2681 1017.5,-0.5C 1018.83,-0.5 1020.17,-0.5 1021.5,-0.5C 1014.99,8.52097 1009.49,18.1876 1005,28.5C 1003.12,38.4002 1002.12,48.4002 1002,58.5C 999.526,64.9743 995.026,69.4743 988.5,72C 985.226,73.2023 981.893,74.2023 978.5,75C 952.101,73.8444 928.435,81.1777 907.5,97C 901.331,101.674 895.331,106.507 889.5,111.5C 892.163,113.992 894.996,116.326 898,118.5C 909.714,109.807 922.214,102.307 935.5,96C 966.794,86.2076 991.294,95.041 1009,122.5C 1015.66,142.187 1009.16,155.354 989.5,162C 972.217,166.35 957.884,161.683 946.5,148C 954.984,147.783 962.65,145.283 969.5,140.5C 975.379,132.148 974.379,124.648 966.5,118C 954.198,108.578 940.865,106.244 926.5,111C 919.262,114.2 912.429,118.033 906,122.5C 905.333,123.167 905.333,123.833 906,124.5C 908.333,126.5 910.667,128.5 913,130.5C 914.365,138.762 910.865,141.928 902.5,140C 897.833,136.667 893.167,133.333 888.5,130C 887.833,129.333 887.167,129.333 886.5,130C 862.127,149.511 837.794,169.011 813.5,188.5C 837.794,207.989 862.127,227.489 886.5,247C 891.602,244.61 896.268,241.277 900.5,237C 904.698,234.839 908.698,235.172 912.5,238C 913.602,240.401 913.769,242.901 913,245.5C 910.961,247.874 908.628,249.874 906,251.5C 905.333,252.167 905.333,252.833 906,253.5C 914.59,260.045 924.09,264.879 934.5,268C 947.222,268.537 958.555,264.87 968.5,257C 976.886,245.559 974.553,236.892 961.5,231C 956.552,229.744 951.552,228.744 946.5,228C 962.724,210.688 981.057,208.021 1001.5,220C 1010.25,227.587 1013.42,237.087 1011,248.5C 1002.63,267.777 988.13,279.611 967.5,284C 950.561,285.849 934.894,282.182 920.5,273C 912.725,268.224 905.225,263.057 898,257.5C 895.463,260.372 892.63,262.872 889.5,265C 902.455,276.147 916.455,285.814 931.5,294C 936.64,296.269 941.973,297.935 947.5,299C 959.184,299.909 970.851,300.909 982.5,302C 987.675,303.387 992.342,305.72 996.5,309C 999.231,311.626 1001.06,314.793 1002,318.5C 1001.26,332.579 1003.92,345.912 1010,358.5C 1014.06,364.384 1017.89,370.384 1021.5,376.5C 1020.17,376.5 1018.83,376.5 1017.5,376.5C 994.397,364.501 969.731,359.668 943.5,362C 934.026,359.193 927.86,353.026 925,343.5C 925.401,328.474 921.401,314.807 913,302.5C 902.537,291.696 891.204,282.029 879,273.5C 875.914,275.298 873.081,277.464 870.5,280C 882.124,289.287 891.957,300.12 900,312.5C 906.667,329.495 902.834,343.662 888.5,355C 875.337,366.61 860.003,371.61 842.5,370C 823.097,366.951 813.597,355.784 814,336.5C 818.333,328.167 824.667,321.833 833,317.5C 834.933,335.025 844.433,342.191 861.5,339C 872.401,335.099 879.568,327.599 883,316.5C 883.972,310.097 882.306,304.431 878,299.5C 873.7,294.199 869.034,289.199 864,284.5C 858.815,292.746 851.982,294.579 843.5,290C 841.15,287.627 840.983,285.127 843,282.5C 847.5,278.667 852,274.833 856.5,271C 831.643,251.309 806.643,231.809 781.5,212.5C 756.977,232.19 732.31,251.69 707.5,271C 712,274.833 716.5,278.667 721,282.5C 722.058,291.094 718.225,294.261 709.5,292C 706.476,290.487 703.809,288.487 701.5,286C 700.5,285.333 699.5,285.333 698.5,286C 690.828,292.53 684.995,300.363 681,309.5C 682.259,327.264 691.759,337.597 709.5,340.5C 723.453,339.301 730.62,331.635 731,317.5C 737.874,321.108 743.541,326.108 748,332.5C 753.266,351.276 746.433,363.443 727.5,369C 701.535,373.013 680.702,364.513 665,343.5C 659.002,332.512 659.002,321.512 665,310.5C 672.889,299.605 681.889,289.605 692,280.5C 691.138,276.969 688.804,274.636 685,273.5C 671.097,282.638 658.764,293.638 648,306.5C 645.427,310.545 643.427,314.878 642,319.5C 641.138,328.24 639.804,336.907 638,345.5C 635.037,354.132 629.203,359.632 620.5,362C 594.948,360.221 570.448,364.387 547,374.5C 546.5,374.167 546,373.833 545.5,373.5C 552.781,364.272 557.947,353.939 561,342.5C 561.333,334.167 561.667,325.833 562,317.5C 565.837,309.144 572.337,303.977 581.5,302C 607.943,303.725 631.943,297.059 653.5,282C 660.5,276.5 667.5,271 674.5,265.5C 672.149,262.575 669.315,260.242 666,258.5C 651.949,268.611 636.783,276.777 620.5,283C 591.219,288.107 569.052,277.94 554,252.5C 548.918,234.552 555.084,222.052 572.5,215C 590.182,209.73 605.182,213.897 617.5,227.5C 610.177,228.61 603.177,230.777 596.5,234C 588.111,242.87 588.778,251.203 598.5,259C 610.128,267.381 622.794,269.715 636.5,266C 644.86,262.494 652.527,257.994 659.5,252.5C 655.844,250.338 652.677,247.671 650,244.5C 649.313,242.08 649.813,239.913 651.5,238C 654.614,236.069 657.947,235.402 661.5,236C 666.934,239.468 672.101,243.301 677,247.5C 701.977,228.024 726.811,208.357 751.5,188.5C 726.243,168.954 701.076,149.287 676,129.5C 672.167,132.667 668.333,135.833 664.5,139C 659.322,141.554 654.822,140.721 651,136.5C 650.333,134.5 650.333,132.5 651,130.5C 653.376,127.955 655.876,125.622 658.5,123.5C 648.958,115.229 637.958,109.896 625.5,107.5C 615.207,108.541 605.873,112.041 597.5,118C 589.921,124.229 588.587,131.563 593.5,140C 600.736,144.912 608.736,147.746 617.5,148.5C 606.13,162.098 591.797,166.598 574.5,162C 555.41,155.6 548.577,142.767 554,123.5C 569.812,97.6837 592.645,87.8504 622.5,94C 638.208,99.9017 652.541,108.068 665.5,118.5C 668.5,116 671.5,113.5 674.5,111C 661.588,100.098 647.588,90.7643 632.5,83C 626.976,80.8688 621.309,79.2021 615.5,78C 605.153,77.0698 594.82,76.0698 584.5,75C 576.398,73.3671 569.564,69.5337 564,63.5C 563.138,61.913 562.471,60.2464 562,58.5C 561.892,48.7741 561.225,39.1074 560,29.5C 558.607,25.7143 556.941,22.0477 555,18.5C 550.585,12.2666 546.418,5.9333 542.5,-0.5 Z"></path>
  </g>
  <g>
    <path style="opacity:0.963" fill="#000000" d="M 1086.5,-0.5 C 1087.83,-0.5 1089.17,-0.5 1090.5,-0.5C 1113.24,11.6272 1137.57,16.4605 1163.5,14C 1172.77,15.93 1178.93,21.43 1182,30.5C 1183.9,39.0627 1185.23,47.7294 1186,56.5C 1189.16,65.9819 1194.33,74.1486 1201.5,81C 1210.38,88.8782 1219.54,96.3782 1229,103.5C 1231.33,101.5 1233.67,99.5 1236,97.5C 1236.67,96.8333 1236.67,96.1667 1236,95.5C 1228.39,88.3775 1221.05,81.0441 1214,73.5C 1198.85,51.9139 1202.02,33.4139 1223.5,18C 1239.01,6.7647 1256.01,3.7647 1274.5,9C 1292.19,15.8767 1297.69,28.0434 1291,45.5C 1286.54,50.9698 1281.2,55.3031 1275,58.5C 1272.72,40.9339 1262.88,34.1006 1245.5,38C 1231.47,43.3618 1224.63,53.5284 1225,68.5C 1230.14,77.0878 1236.47,84.7545 1244,91.5C 1247.17,89 1250.33,86.5 1253.5,84C 1259.71,82.4406 1264.05,84.6073 1266.5,90.5C 1262.67,96.4956 1257.67,101.329 1251.5,105C 1276.34,124.514 1301.18,144.014 1326,163.5C 1351.09,144.367 1375.92,124.867 1400.5,105C 1396,101.167 1391.5,97.3333 1387,93.5C 1386.45,85.399 1390.28,82.2323 1398.5,84C 1401.67,86.5 1404.83,89 1408,91.5C 1417.14,84.3645 1423.97,75.5311 1428.5,65C 1422.92,41.3986 1408.59,33.0652 1385.5,40C 1379.84,44.8237 1377.01,50.9904 1377,58.5C 1370.1,54.9301 1364.43,49.9301 1360,43.5C 1355.06,28.2023 1359.89,17.0356 1374.5,10C 1402.26,2.47436 1425.09,9.97436 1443,32.5C 1449.82,46.6244 1448.49,59.9577 1439,72.5C 1432,80.8333 1424.33,88.5 1416,95.5C 1415.33,96.1667 1415.33,96.8333 1416,97.5C 1418.63,99.1255 1420.96,101.126 1423,103.5C 1435.42,94.1067 1447.08,83.7734 1458,72.5C 1461.45,67.9448 1464.11,62.9448 1466,57.5C 1466.81,48.4151 1468.15,39.4151 1470,30.5C 1473.41,20.0884 1480.58,14.5884 1491.5,14C 1504.93,14.0778 1518.27,13.0778 1531.5,11C 1542.2,7.82562 1552.54,3.99228 1562.5,-0.5C 1563.5,-0.5 1564.5,-0.5 1565.5,-0.5C 1560.1,7.94595 1554.94,16.6126 1550,25.5C 1547.17,36.2967 1545.83,47.2967 1546,58.5C 1544.69,62.8133 1542.19,66.3133 1538.5,69C 1533.83,71.8365 1528.83,73.8365 1523.5,75C 1498.64,73.8797 1475.97,80.213 1455.5,94C 1447.98,99.5928 1440.65,105.426 1433.5,111.5C 1436.28,114.064 1439.28,116.397 1442.5,118.5C 1455.46,108.068 1469.79,99.9017 1485.5,94C 1515.9,87.3497 1538.73,97.5163 1554,124.5C 1559.18,142.313 1553.01,154.479 1535.5,161C 1517.39,166.63 1502.05,162.297 1489.5,148C 1498.17,147.803 1506.17,145.47 1513.5,141C 1518.61,134.632 1518.78,128.132 1514,121.5C 1500.68,108.706 1485.51,105.54 1468.5,112C 1461.51,114.84 1455.18,118.673 1449.5,123.5C 1452.46,125.956 1455.29,128.622 1458,131.5C 1457.83,139.631 1453.66,142.464 1445.5,140C 1440.71,136.882 1436.21,133.382 1432,129.5C 1406.56,148.805 1381.39,168.471 1356.5,188.5C 1381.36,208.518 1406.52,228.184 1432,247.5C 1436.55,243.286 1441.38,239.453 1446.5,236C 1451.29,235.15 1455.12,236.65 1458,240.5C 1458.67,241.833 1458.67,243.167 1458,244.5C 1455.37,247.294 1452.54,249.961 1449.5,252.5C 1458.19,260.012 1468.19,265.179 1479.5,268C 1490.51,268.414 1500.51,265.414 1509.5,259C 1518.4,252.154 1519.74,244.154 1513.5,235C 1506.1,230.814 1498.1,228.481 1489.5,228C 1507.26,209.902 1526.59,207.902 1547.5,222C 1559.17,235.251 1559.33,248.751 1548,262.5C 1529.96,283.22 1507.79,289.386 1481.5,281C 1467.51,275.014 1454.51,267.514 1442.5,258.5C 1439.22,260.449 1436.22,262.783 1433.5,265.5C 1445.96,275.901 1459.3,285.068 1473.5,293C 1479.64,295.603 1485.98,297.603 1492.5,299C 1503.85,299.94 1515.18,300.94 1526.5,302C 1544.16,306.793 1550.99,318.293 1547,336.5C 1547.37,341.304 1548.37,345.97 1550,350.5C 1554.6,359.576 1559.76,368.243 1565.5,376.5C 1564.17,376.5 1562.83,376.5 1561.5,376.5C 1538.38,364.476 1513.71,359.643 1487.5,362C 1478.79,359.623 1472.95,354.123 1470,345.5C 1468.06,338.311 1467.06,330.978 1467,323.5C 1463.13,309.95 1455.63,298.783 1444.5,290C 1437.61,284.103 1430.44,278.603 1423,273.5C 1420.84,274.985 1418.68,276.485 1416.5,278C 1415.55,278.718 1415.38,279.551 1416,280.5C 1424,287.167 1431.33,294.5 1438,302.5C 1453.51,324.804 1450.01,343.638 1427.5,359C 1410.75,371.125 1392.75,373.458 1373.5,366C 1359.65,358.487 1355.15,347.32 1360,332.5C 1364.46,326.108 1370.13,321.108 1377,317.5C 1377.79,331.125 1384.96,338.792 1398.5,340.5C 1415.04,337.623 1425.04,327.956 1428.5,311.5C 1423.42,301.244 1416.59,292.244 1408,284.5C 1405.11,287.361 1401.94,289.861 1398.5,292C 1390.28,293.768 1386.45,290.601 1387,282.5C 1391.5,278.667 1396,274.833 1400.5,271C 1375.69,251.69 1351.02,232.19 1326.5,212.5C 1301.36,231.809 1276.36,251.309 1251.5,271C 1256,274.833 1260.5,278.667 1265,282.5C 1266.83,286.662 1265.67,289.828 1261.5,292C 1258.83,292.667 1256.17,292.667 1253.5,292C 1250.33,289.5 1247.17,287 1244,284.5C 1236.91,291.584 1230.58,299.251 1225,307.5C 1225.29,326.302 1234.79,337.302 1253.5,340.5C 1267.01,338.819 1274.18,331.152 1275,317.5C 1281.2,320.697 1286.54,325.03 1291,330.5C 1297.51,346.999 1292.68,359.166 1276.5,367C 1247.81,374.413 1224.98,365.913 1208,341.5C 1202.33,326.824 1204.67,313.491 1215,301.5C 1222.2,293.969 1229.7,286.802 1237.5,280C 1234.57,277.618 1231.74,275.118 1229,272.5C 1221.59,278.786 1214.09,284.953 1206.5,291C 1196.88,298.945 1190.05,308.778 1186,320.5C 1185,328.167 1184,335.833 1183,343.5C 1180.13,353.035 1173.97,359.202 1164.5,362C 1149.42,361.94 1134.42,362.94 1119.5,365C 1109.33,367.838 1099.33,370.838 1089.5,374C 1102.51,357.825 1108.01,339.325 1106,318.5C 1106.94,314.793 1108.77,311.626 1111.5,309C 1117.25,304.96 1123.58,302.294 1130.5,301C 1155.83,303.006 1178.49,296.339 1198.5,281C 1205.02,275.642 1211.69,270.475 1218.5,265.5C 1215.8,262.727 1212.97,260.06 1210,257.5C 1197.16,267.842 1182.99,276.008 1167.5,282C 1137.94,289.263 1115.1,280.096 1099,254.5C 1092.39,234.223 1099.22,220.723 1119.5,214C 1136.49,210.442 1150.83,215.108 1162.5,228C 1154.73,228.514 1147.4,230.514 1140.5,234C 1133.58,240.103 1132.75,246.936 1138,254.5C 1150.84,266.899 1165.67,270.399 1182.5,265C 1189.52,261.964 1196.02,258.13 1202,253.5C 1202.67,252.833 1202.67,252.167 1202,251.5C 1198.31,249.308 1195.47,246.308 1193.5,242.5C 1195.56,236.969 1199.56,234.802 1205.5,236C 1210.86,239.349 1215.86,243.182 1220.5,247.5C 1245.81,228.184 1270.81,208.517 1295.5,188.5C 1270.55,168.227 1245.21,148.727 1219.5,130C 1214.83,133.333 1210.17,136.667 1205.5,140C 1197.56,141.475 1194.06,138.308 1195,130.5C 1197.04,128.126 1199.37,126.126 1202,124.5C 1202.67,123.833 1202.67,123.167 1202,122.5C 1192.37,114.936 1181.54,109.936 1169.5,107.5C 1157.26,108.407 1146.76,113.073 1138,121.5C 1131.43,134.423 1135.26,142.59 1149.5,146C 1153.79,146.912 1158.13,147.579 1162.5,148C 1144.84,166.312 1125.51,168.312 1104.5,154C 1094.39,141.629 1093.89,128.796 1103,115.5C 1119.54,94.9875 1140.7,87.8209 1166.5,94C 1182.44,99.7185 1196.94,107.885 1210,118.5C 1213.17,116 1216.33,113.5 1219.5,111C 1205.58,99.7568 1190.58,90.0901 1174.5,82C 1169.92,80.3557 1165.26,79.0224 1160.5,78C 1149.82,77.0736 1139.16,76.0736 1128.5,75C 1120.39,73.3623 1113.55,69.5289 1108,63.5C 1107.33,61.5 1106.67,59.5 1106,57.5C 1106,47.3858 1105,37.3858 1103,27.5C 1098.26,17.6774 1092.76,8.34406 1086.5,-0.5 Z"></path>
  </g>
  <g>
    <path style="opacity:0.963" fill="#000000" d="M 1630.5,-0.5 C 1631.83,-0.5 1633.17,-0.5 1634.5,-0.5C 1657.24,11.6272 1681.57,16.4605 1707.5,14C 1718.72,16.9124 1725.55,24.0791 1728,35.5C 1727.84,46.7513 1730.18,57.418 1735,67.5C 1740.09,74.5963 1745.93,81.0963 1752.5,87C 1759.42,92.38 1766.26,97.88 1773,103.5C 1775.98,101.356 1778.81,99.0222 1781.5,96.5C 1774.21,89.7087 1767.04,82.7087 1760,75.5C 1743.37,54.4627 1745.54,35.6293 1766.5,19C 1783.17,6.20019 1801.51,3.20019 1821.5,10C 1835.97,16.4366 1841.14,27.2699 1837,42.5C 1832.92,49.7482 1827.09,55.0816 1819.5,58.5C 1816.69,41.1909 1806.69,34.3575 1789.5,38C 1775.92,43.2297 1769.09,53.063 1769,67.5C 1773.43,76.9379 1779.76,84.9379 1788,91.5C 1790.89,88.6386 1794.06,86.1386 1797.5,84C 1806.22,82.3892 1810.05,85.8892 1809,94.5C 1804.77,98.3625 1800.27,101.862 1795.5,105C 1820.36,124.691 1845.36,144.191 1870.5,163.5C 1895.64,144.191 1920.64,124.691 1945.5,105C 1940.38,101.547 1935.55,97.7139 1931,93.5C 1930.45,85.399 1934.28,82.2323 1942.5,84C 1945.67,86.5 1948.83,89 1952,91.5C 1960.27,84.9154 1966.6,76.9154 1971,67.5C 1970.9,53.0567 1964.07,43.2234 1950.5,38C 1933.12,34.1834 1923.12,41.0167 1920.5,58.5C 1909.78,53.3713 1903.11,45.038 1900.5,33.5C 1903.89,17.9518 1913.55,9.11848 1929.5,7C 1952.3,5.31722 1971.13,13.1506 1986,30.5C 1994.34,45.7091 1993.01,60.0424 1982,73.5C 1974.66,81.1703 1967,88.5036 1959,95.5C 1958.38,96.4491 1958.55,97.2825 1959.5,98C 1962.04,99.7698 1964.71,101.27 1967.5,102.5C 1981.72,93.1155 1994.22,81.7822 2005,68.5C 2007.56,64.0553 2009.56,59.3887 2011,54.5C 2011.15,46.3869 2012.15,38.3869 2014,30.5C 2017.28,20.5553 2024.11,15.0553 2034.5,14C 2059.99,15.8696 2083.99,11.0363 2106.5,-0.5C 2107.5,-0.5 2108.5,-0.5 2109.5,-0.5C 2103.25,8.31642 2097.75,17.6497 2093,27.5C 2092.18,29.7885 2091.51,32.1218 2091,34.5C 2096.85,56.4735 2089.02,69.9735 2067.5,75C 2042.64,73.8797 2019.97,80.213 1999.5,94C 1992.17,100 1984.83,106 1977.5,112C 1980.33,114.167 1983.17,116.333 1986,118.5C 1999.91,107.291 2015.41,98.7908 2032.5,93C 2061.12,88.726 2082.95,98.8927 2098,123.5C 2102.91,136.372 2100.07,147.205 2089.5,156C 2072.91,166.274 2056.57,165.941 2040.5,155C 2038.32,152.984 2036.32,150.817 2034.5,148.5C 2041.4,147.487 2048.07,145.654 2054.5,143C 2062.56,137.609 2064.06,130.776 2059,122.5C 2046.35,109.631 2031.52,105.798 2014.5,111C 2006.51,114.325 1999.17,118.659 1992.5,124C 1996.29,125.8 1999.46,128.3 2002,131.5C 2003.04,134.636 2002.21,137.136 1999.5,139C 1996.3,140.483 1992.96,140.817 1989.5,140C 1984.67,136.5 1979.83,133 1975,129.5C 1949.88,148.953 1925.04,168.787 1900.5,189C 1925.33,208.5 1950.17,228 1975,247.5C 1980.54,242.449 1986.7,238.449 1993.5,235.5C 2000.38,236.503 2002.88,240.17 2001,246.5C 1998.17,248.667 1995.33,250.833 1992.5,253C 2001.9,259.864 2012.23,264.864 2023.5,268C 2039.01,268.492 2051.51,262.659 2061,250.5C 2063.27,240.553 2059.44,234.053 2049.5,231C 2044.44,230.046 2039.44,228.88 2034.5,227.5C 2051.4,210.258 2070.07,208.091 2090.5,221C 2102.89,233.706 2103.72,247.206 2093,261.5C 2068.1,287.849 2039.94,291.683 2008.5,273C 2000.77,268.608 1993.61,263.441 1987,257.5C 1983.83,260 1980.67,262.5 1977.5,265C 1990.12,276.617 2004.12,286.284 2019.5,294C 2024.64,296.269 2029.97,297.935 2035.5,299C 2047.18,299.909 2058.85,300.909 2070.5,302C 2079.49,303.571 2085.99,308.404 2090,316.5C 2090.33,324.833 2090.67,333.167 2091,341.5C 2091.8,344.893 2092.8,348.226 2094,351.5C 2099.02,360.001 2104.19,368.334 2109.5,376.5C 2108.17,376.5 2106.83,376.5 2105.5,376.5C 2082.34,364.702 2057.67,359.869 2031.5,362C 2023.53,360.034 2018.03,355.201 2015,347.5C 2012.3,339.4 2010.97,331.067 2011,322.5C 2009.34,315.51 2006.34,309.176 2002,303.5C 1991.43,292.075 1979.77,282.075 1967,273.5C 1965.18,274.651 1963.34,275.818 1961.5,277C 1959.99,277.837 1959.49,279.004 1960,280.5C 1967.67,286.833 1974.67,293.833 1981,301.5C 1997.92,324.633 1994.42,344.133 1970.5,360C 1952.2,372.188 1933.2,373.521 1913.5,364C 1898.74,352.077 1897.74,339.077 1910.5,325C 1914.25,322.376 1918.08,319.876 1922,317.5C 1922.83,334.976 1932,342.143 1949.5,339C 1964.19,334 1971.35,323.834 1971,308.5C 1966.26,299.697 1960.1,292.03 1952.5,285.5C 1949.36,287.473 1946.36,289.64 1943.5,292C 1937.13,293.977 1932.79,291.977 1930.5,286C 1930.63,284.373 1931.13,282.873 1932,281.5C 1935.74,278.379 1939.58,275.379 1943.5,272.5C 1944.52,271.998 1944.69,271.332 1944,270.5C 1919.59,251.046 1895.09,231.713 1870.5,212.5C 1845.57,231.262 1821.07,250.595 1797,270.5C 1800.09,274.788 1804.09,278.455 1809,281.5C 1811.15,285.058 1810.65,288.225 1807.5,291C 1803.96,292.504 1800.29,292.837 1796.5,292C 1793.37,289.872 1790.54,287.372 1788,284.5C 1780.22,291.409 1773.89,299.409 1769,308.5C 1769.94,326.673 1779.44,337.34 1797.5,340.5C 1810.97,338.863 1818.13,331.196 1819,317.5C 1827.65,321.632 1833.99,327.965 1838,336.5C 1839.59,350.815 1833.75,360.981 1820.5,367C 1801.28,373.29 1783.61,370.29 1767.5,358C 1745.21,340.733 1743.04,321.233 1761,299.5C 1767.53,292.635 1774.36,286.135 1781.5,280C 1779.22,277.052 1776.39,274.886 1773,273.5C 1757.47,283.11 1744.47,295.443 1734,310.5C 1729.97,320.056 1727.97,330.056 1728,340.5C 1726.26,347.149 1723.09,352.983 1718.5,358C 1715.38,359.893 1712.05,361.226 1708.5,362C 1695.13,362.168 1681.8,362.834 1668.5,364C 1656.29,366.964 1644.29,370.297 1632.5,374C 1645.93,358.382 1651.76,340.215 1650,319.5C 1651.84,311.638 1656.67,306.471 1664.5,304C 1667.77,302.798 1671.11,301.798 1674.5,301C 1697.9,302.817 1719.24,297.151 1738.5,284C 1746.83,277.667 1755.17,271.333 1763.5,265C 1760.33,262.5 1757.17,260 1754,257.5C 1741.16,267.842 1726.99,276.008 1711.5,282C 1681.61,289.131 1658.78,279.631 1643,253.5C 1636.79,235.097 1642.62,222.264 1660.5,215C 1678.3,209.6 1693.3,213.933 1705.5,228C 1698.1,228.622 1691.1,230.622 1684.5,234C 1675.86,243.589 1676.86,252.256 1687.5,260C 1699.04,267.535 1711.37,269.535 1724.5,266C 1732.65,262.426 1740.32,258.093 1747.5,253C 1744.95,250.147 1742.11,247.647 1739,245.5C 1738.79,236.67 1742.96,233.837 1751.5,237C 1755.91,240.621 1760.41,244.121 1765,247.5C 1789.81,228.183 1814.31,208.516 1838.5,188.5C 1814.31,168.484 1789.81,148.817 1765,129.5C 1760.09,133.371 1754.93,136.871 1749.5,140C 1741.94,141.754 1738.11,138.92 1738,131.5C 1740.32,128.852 1742.99,126.519 1746,124.5C 1746.67,123.833 1746.67,123.167 1746,122.5C 1736.47,115.068 1725.8,110.068 1714,107.5C 1701.04,108.261 1690.04,113.261 1681,122.5C 1676.25,134.82 1680.41,142.653 1693.5,146C 1697.53,146.695 1701.53,147.528 1705.5,148.5C 1689.23,165.584 1670.9,168.084 1650.5,156C 1638.15,142.936 1637.32,129.103 1648,114.5C 1670.17,90.3785 1696,85.5452 1725.5,100C 1735.43,105.544 1744.93,111.711 1754,118.5C 1757.13,116.372 1759.96,113.872 1762.5,111C 1749.17,99.3384 1734.5,89.6717 1718.5,82C 1713.92,80.3557 1709.26,79.0224 1704.5,78C 1693.81,77.1046 1683.15,76.1046 1672.5,75C 1652.4,70.0161 1644.57,57.1828 1649,36.5C 1645.47,22.7704 1639.3,10.4371 1630.5,-0.5 Z"></path>
  </g>
  <g>
    <path style="opacity:0.963" fill="#000000" d="M 2169.5,-0.5 C 2170.83,-0.5 2172.17,-0.5 2173.5,-0.5C 2196.29,11.4138 2220.63,16.2471 2246.5,14C 2257.71,16.8754 2264.54,24.042 2267,35.5C 2266.05,55.3358 2273.22,71.5025 2288.5,84C 2296.33,90.5 2304.17,97 2312,103.5C 2314.98,101.356 2317.81,99.0222 2320.5,96.5C 2307.95,86.4575 2297.79,74.4575 2290,60.5C 2285.16,43.003 2290.33,29.1697 2305.5,19C 2322.52,6.06539 2341.18,3.06539 2361.5,10C 2374.8,16.1069 2379.97,26.2735 2377,40.5C 2372.92,48.6281 2366.75,54.6281 2358.5,58.5C 2356.32,40.5579 2346.32,33.7245 2328.5,38C 2314.77,43.6431 2308.27,53.8098 2309,68.5C 2313.86,77.0266 2319.86,84.6932 2327,91.5C 2330.22,88.612 2333.72,86.112 2337.5,84C 2343.45,82.8052 2347.45,84.9718 2349.5,90.5C 2349.28,91.938 2348.78,93.2713 2348,94.5C 2343.77,98.3625 2339.27,101.862 2334.5,105C 2359.36,124.691 2384.36,144.191 2409.5,163.5C 2434.6,144.571 2459.26,125.071 2483.5,105C 2479,101.167 2474.5,97.3333 2470,93.5C 2469.45,85.399 2473.28,82.2323 2481.5,84C 2484.94,86.1386 2488.11,88.6386 2491,91.5C 2499.53,84.6361 2506.2,76.3028 2511,66.5C 2509.84,50.9977 2501.68,41.1644 2486.5,37C 2470.73,35.6004 2462.07,42.7671 2460.5,58.5C 2449.35,53.6869 2442.68,45.3535 2440.5,33.5C 2443.9,17.942 2453.56,9.10864 2469.5,7C 2492.85,5.59222 2511.68,14.0922 2526,32.5C 2532.7,46.0593 2531.7,59.0593 2523,71.5C 2515.67,80.1667 2507.67,88.1667 2499,95.5C 2498.38,96.4491 2498.55,97.2825 2499.5,98C 2501.72,99.7331 2504.06,101.233 2506.5,102.5C 2520.02,93.4824 2532.19,82.8157 2543,70.5C 2545.53,66.7789 2547.53,62.7789 2549,58.5C 2549.91,49.4399 2551.24,40.4399 2553,31.5C 2556.06,20.5613 2563.23,14.7279 2574.5,14C 2599.69,15.9949 2623.36,11.1616 2645.5,-0.5C 2646.5,-0.5 2647.5,-0.5 2648.5,-0.5C 2642.75,8.43749 2637.59,17.7708 2633,27.5C 2632.08,30.1013 2631.41,32.7679 2631,35.5C 2635.65,57.0669 2627.49,70.2336 2606.5,75C 2580.57,73.7592 2557.23,80.7592 2536.5,96C 2529.83,101.333 2523.17,106.667 2516.5,112C 2519.93,113.796 2523.09,115.963 2526,118.5C 2539.94,107.276 2555.44,98.7763 2572.5,93C 2601.05,88.5275 2622.55,98.6942 2637,123.5C 2642.65,144.548 2634.81,157.715 2613.5,163C 2597.71,165.429 2584.71,160.596 2574.5,148.5C 2581.85,147.413 2588.85,145.247 2595.5,142C 2600.5,137.361 2602,131.861 2600,125.5C 2594.91,117.53 2587.74,112.363 2578.5,110C 2574.17,109.084 2569.83,108.251 2565.5,107.5C 2553.29,110.441 2542.29,115.775 2532.5,123.5C 2535.54,126.039 2538.37,128.706 2541,131.5C 2541.78,134.257 2541.28,136.757 2539.5,139C 2536.3,140.483 2532.96,140.817 2529.5,140C 2524.67,136.5 2519.83,133 2515,129.5C 2489.88,148.953 2465.04,168.787 2440.5,189C 2465.33,208.5 2490.17,228 2515,247.5C 2520.54,242.449 2526.7,238.449 2533.5,235.5C 2539.21,236.029 2541.71,239.029 2541,244.5C 2538.35,247.43 2535.52,250.264 2532.5,253C 2541.39,260.114 2551.39,265.114 2562.5,268C 2573.75,268.25 2584.09,265.25 2593.5,259C 2604.66,248.99 2603.99,239.99 2591.5,232C 2585.88,230.287 2580.22,228.787 2574.5,227.5C 2591.92,209.742 2610.92,207.909 2631.5,222C 2641.99,234.964 2642.16,248.131 2632,261.5C 2608.85,287.082 2582.02,291.582 2551.5,275C 2542.45,269.948 2533.95,264.114 2526,257.5C 2522.83,260 2519.67,262.5 2516.5,265C 2530.14,276.961 2545.14,286.961 2561.5,295C 2575.43,299.681 2589.77,301.681 2604.5,301C 2627.32,304.963 2636.16,318.463 2631,341.5C 2631.8,344.893 2632.8,348.226 2634,351.5C 2638.86,359.888 2643.69,368.222 2648.5,376.5C 2647.17,376.5 2645.83,376.5 2644.5,376.5C 2621.4,364.479 2596.73,359.645 2570.5,362C 2562.52,360.025 2557.02,355.192 2554,347.5C 2551.3,339.4 2549.97,331.067 2550,322.5C 2546.66,310.325 2540.16,300.158 2530.5,292C 2522.93,285.259 2514.93,279.093 2506.5,273.5C 2503.55,275.115 2500.88,277.115 2498.5,279.5C 2505.13,285.624 2511.63,291.958 2518,298.5C 2521.73,303.228 2525.06,308.228 2528,313.5C 2533.95,331.639 2529.12,346.139 2513.5,357C 2498.05,369.49 2480.72,373.157 2461.5,368C 2449.66,363.49 2442.66,354.99 2440.5,342.5C 2441.25,335.492 2444.25,329.658 2449.5,325C 2453.25,322.376 2457.08,319.876 2461,317.5C 2462.06,335.106 2471.22,342.273 2488.5,339C 2502.52,333.997 2510.02,324.164 2511,309.5C 2506.77,300.254 2500.6,292.42 2492.5,286C 2491.5,285.333 2490.5,285.333 2489.5,286C 2487.35,288.237 2485.02,290.237 2482.5,292C 2473.88,294.145 2469.71,290.978 2470,282.5C 2474.02,278.977 2478.19,275.643 2482.5,272.5C 2483.52,271.998 2483.69,271.332 2483,270.5C 2458.59,251.046 2434.09,231.713 2409.5,212.5C 2384.36,231.809 2359.36,251.309 2334.5,271C 2338.91,274.621 2343.41,278.121 2348,281.5C 2350.33,285.155 2349.83,288.321 2346.5,291C 2340.1,293.868 2334.77,292.535 2330.5,287C 2328.96,285.813 2327.29,285.48 2325.5,286C 2318.85,292.312 2313.35,299.479 2309,307.5C 2308.3,323.231 2315.46,333.731 2330.5,339C 2347.8,342.372 2356.97,335.206 2358,317.5C 2366.12,321.706 2372.45,327.706 2377,335.5C 2379.88,347.258 2376.38,356.758 2366.5,364C 2345.35,374.012 2325.35,372.012 2306.5,358C 2285.15,342.245 2282.31,323.745 2298,302.5C 2304.83,294.333 2312.33,286.833 2320.5,280C 2318.27,277.265 2315.6,275.098 2312.5,273.5C 2298.25,282.915 2285.75,294.248 2275,307.5C 2269.3,317.72 2266.63,328.72 2267,340.5C 2264.58,351.581 2258.08,358.748 2247.5,362C 2234.47,362.173 2221.47,362.84 2208.5,364C 2196.29,366.964 2184.29,370.297 2172.5,374C 2180.52,364.122 2186.02,352.955 2189,340.5C 2189.53,335.653 2189.37,330.82 2188.5,326C 2187.8,314.712 2192.8,307.378 2203.5,304C 2206.77,302.798 2210.11,301.798 2213.5,301C 2239.18,303.167 2262.18,296.501 2282.5,281C 2289.17,275.667 2295.83,270.333 2302.5,265C 2299.33,262.5 2296.17,260 2293,257.5C 2278.23,270.136 2261.4,278.969 2242.5,284C 2215.77,286.72 2195.61,276.553 2182,253.5C 2176.16,233.355 2183.32,220.188 2203.5,214C 2220.29,210.263 2234.29,214.929 2245.5,228C 2237.26,228.64 2229.6,230.973 2222.5,235C 2215.8,242.54 2216.13,249.873 2223.5,257C 2236.45,267.491 2250.78,270.158 2266.5,265C 2273.5,261.503 2280.16,257.503 2286.5,253C 2283.57,250.618 2280.74,248.118 2278,245.5C 2276.87,239.284 2279.54,235.95 2286,235.5C 2287.89,235.796 2289.72,236.296 2291.5,237C 2295.91,240.621 2300.41,244.121 2305,247.5C 2329.81,228.183 2354.31,208.516 2378.5,188.5C 2353.83,168.673 2329,149.007 2304,129.5C 2299.26,133.122 2294.42,136.622 2289.5,140C 2281.28,141.768 2277.45,138.601 2278,130.5C 2280.74,128.212 2283.58,126.045 2286.5,124C 2276.7,115.685 2265.54,110.185 2253,107.5C 2239.91,108.547 2228.91,113.88 2220,123.5C 2216.15,130.589 2217.32,136.755 2223.5,142C 2230.47,145.362 2237.81,147.529 2245.5,148.5C 2229.2,165.512 2210.87,168.012 2190.5,156C 2177.18,143.292 2176.01,129.458 2187,114.5C 2210.83,89.2853 2238,85.1186 2268.5,102C 2277.1,106.881 2285.26,112.381 2293,118.5C 2296.17,116 2299.33,113.5 2302.5,111C 2288.66,99.576 2273.66,89.9093 2257.5,82C 2252.92,80.3557 2248.26,79.0224 2243.5,78C 2233.15,77.1104 2222.81,76.1104 2212.5,75C 2206.33,73.8328 2200.66,71.4994 2195.5,68C 2190.35,63.1647 2188.02,57.1647 2188.5,50C 2190.16,41.5886 2189.32,33.4219 2186,25.5C 2181.24,16.2978 2175.74,7.63115 2169.5,-0.5 Z"></path>
  </g>
  <g>
    <path style="opacity:0.963" fill="#000000" d="M 2714.5,-0.5 C 2715.5,-0.5 2716.5,-0.5 2717.5,-0.5C 2740.61,11.523 2765.28,16.3563 2791.5,14C 2800.05,15.5546 2805.89,20.3879 2809,28.5C 2811.79,36.5847 2813.13,44.9181 2813,53.5C 2816.53,66.7049 2823.7,77.5382 2834.5,86C 2841.43,92.1104 2848.77,97.6104 2856.5,102.5C 2858.94,101.233 2861.28,99.7331 2863.5,98C 2864.45,97.2825 2864.62,96.4491 2864,95.5C 2854.3,87.4638 2845.63,78.4638 2838,68.5C 2831.2,56.6238 2830.86,44.6238 2837,32.5C 2854.33,9.39153 2876.83,1.89153 2904.5,10C 2921.07,17.9331 2925.57,30.0997 2918,46.5C 2913.65,51.5885 2908.48,55.5885 2902.5,58.5C 2900.9,42.7356 2892.24,35.569 2876.5,37C 2861.33,41.156 2853.17,50.9893 2852,66.5C 2856.8,76.3028 2863.47,84.6361 2872,91.5C 2874.89,88.6386 2878.06,86.1386 2881.5,84C 2889.72,82.2323 2893.55,85.399 2893,93.5C 2888.5,97.3333 2884,101.167 2879.5,105C 2903.98,124.741 2928.65,144.241 2953.5,163.5C 2978.64,144.191 3003.64,124.691 3028.5,105C 3024.09,101.379 3019.59,97.8792 3015,94.5C 3012.49,89.3407 3013.99,85.8407 3019.5,84C 3025.96,84.0691 3031.46,86.5691 3036,91.5C 3043.48,84.3629 3049.81,76.3629 3055,67.5C 3054.97,53.111 3048.14,43.2777 3034.5,38C 3016.65,33.6563 3006.81,40.4896 3005,58.5C 2998.41,54.9064 2992.74,50.2397 2988,44.5C 2981.7,28.9065 2986.2,17.4065 3001.5,10C 3029.92,2.47288 3053.09,10.3062 3071,33.5C 3077.7,48.3672 3075.7,62.0339 3065,74.5C 3057.63,82.042 3050.13,89.3753 3042.5,96.5C 3045.19,99.0222 3048.02,101.356 3051,103.5C 3058.41,97.2139 3065.91,91.0472 3073.5,85C 3083.12,77.0549 3089.95,67.2216 3094,55.5C 3094.73,46.7199 3096.06,38.0533 3098,29.5C 3101.7,20.1286 3108.53,14.9619 3118.5,14C 3143.68,15.9497 3167.35,11.1164 3189.5,-0.5C 3190.83,-0.5 3192.17,-0.5 3193.5,-0.5C 3187.84,7.46993 3182.68,15.8033 3178,24.5C 3176.38,28.3466 3175.38,32.3466 3175,36.5C 3179.47,57.7803 3171.3,70.6137 3150.5,75C 3125.1,73.7627 3102.1,80.4293 3081.5,95C 3074.66,100.341 3068,105.841 3061.5,111.5C 3064.16,113.992 3067,116.326 3070,118.5C 3084.17,106.996 3100,98.4962 3117.5,93C 3146.66,88.8299 3168.16,99.6632 3182,125.5C 3185.86,137.892 3182.7,148.059 3172.5,156C 3152.13,168.012 3133.8,165.512 3117.5,148.5C 3125.26,147.709 3132.59,145.543 3139.5,142C 3145.68,136.755 3146.85,130.589 3143,123.5C 3130.51,110.103 3115.68,105.937 3098.5,111C 3091.26,114.2 3084.43,118.033 3078,122.5C 3077.33,123.167 3077.33,123.833 3078,124.5C 3080.33,126.5 3082.67,128.5 3085,130.5C 3086.06,139.094 3082.22,142.261 3073.5,140C 3068.67,136.5 3063.83,133 3059,129.5C 3034,149.007 3009.17,168.673 2984.5,188.5C 3009.17,208.327 3034,227.993 3059,247.5C 3063.17,244 3067.33,240.5 3071.5,237C 3076.62,234.625 3081.12,235.458 3085,239.5C 3085.67,241.5 3085.67,243.5 3085,245.5C 3082.26,248.118 3079.43,250.618 3076.5,253C 3085.67,259.587 3095.67,264.587 3106.5,268C 3119.68,268.387 3131.18,264.22 3141,255.5C 3148.59,242.162 3144.76,233.662 3129.5,230C 3125.5,229.333 3121.5,228.667 3117.5,228C 3133.74,210.686 3152.08,208.02 3172.5,220C 3185.42,232.129 3186.92,245.629 3177,260.5C 3160.24,281.641 3138.74,288.808 3112.5,282C 3096.71,276.528 3082.55,268.361 3070,257.5C 3066.83,260 3063.67,262.5 3060.5,265C 3074.14,276.961 3089.14,286.961 3105.5,295C 3119.77,299.71 3134.44,301.71 3149.5,301C 3156.43,302.307 3162.76,304.974 3168.5,309C 3170.62,310.731 3172.12,312.898 3173,315.5C 3174.16,323.449 3174.82,331.449 3175,339.5C 3175.38,343.653 3176.38,347.653 3178,351.5C 3182.68,360.197 3187.84,368.53 3193.5,376.5C 3192.17,376.5 3190.83,376.5 3189.5,376.5C 3166.34,364.702 3141.67,359.869 3115.5,362C 3106.87,360.038 3101.04,354.872 3098,346.5C 3096.13,336.895 3094.46,327.228 3093,317.5C 3089.11,307.941 3083.27,299.775 3075.5,293C 3067.61,286.106 3059.44,279.606 3051,273.5C 3047.61,274.886 3044.78,277.052 3042.5,280C 3049.97,286.468 3057.14,293.302 3064,300.5C 3080.99,322.195 3078.49,341.362 3056.5,358C 3040.39,370.29 3022.72,373.29 3003.5,367C 2990.25,360.981 2984.41,350.815 2986,336.5C 2990.33,328.167 2996.67,321.833 3005,317.5C 3006.03,335.206 3015.2,342.372 3032.5,339C 3046.97,333.875 3054.47,323.709 3055,308.5C 3050.16,299.488 3043.66,291.821 3035.5,285.5C 3032.36,287.473 3029.36,289.64 3026.5,292C 3019.9,294.035 3015.57,291.868 3013.5,285.5C 3013.72,284.062 3014.22,282.729 3015,281.5C 3019.79,278.382 3024.29,274.882 3028.5,271C 3003.64,251.309 2978.64,231.809 2953.5,212.5C 2928.65,231.759 2903.98,251.259 2879.5,271C 2884,274.833 2888.5,278.667 2893,282.5C 2893.29,290.978 2889.12,294.145 2880.5,292C 2877.98,290.237 2875.65,288.237 2873.5,286C 2872.5,285.333 2871.5,285.333 2870.5,286C 2862.52,292.472 2856.36,300.305 2852,309.5C 2852.98,324.164 2860.48,333.997 2874.5,339C 2892.03,342.106 2901.2,334.94 2902,317.5C 2913.46,322.117 2920.29,330.451 2922.5,342.5C 2919.13,358.715 2909.13,367.882 2892.5,370C 2884.7,370.895 2877.03,370.228 2869.5,368C 2854.79,362.744 2843.29,353.578 2835,340.5C 2831.71,331.514 2831.71,322.514 2835,313.5C 2838.17,307.819 2841.84,302.486 2846,297.5C 2852.04,291.291 2858.21,285.291 2864.5,279.5C 2862.12,277.115 2859.45,275.115 2856.5,273.5C 2842.25,282.915 2829.75,294.248 2819,307.5C 2813.68,316.43 2811.35,326.096 2812,336.5C 2811.03,344.947 2807.53,352.114 2801.5,358C 2798.78,359.908 2795.78,361.241 2792.5,362C 2766.92,360.034 2742.42,364.201 2719,374.5C 2718.5,374.167 2718,373.833 2717.5,373.5C 2722.43,366.654 2726.59,359.321 2730,351.5C 2731.96,340.256 2733.29,328.923 2734,317.5C 2737.84,309.144 2744.34,303.977 2753.5,302C 2781.06,303.92 2805.73,296.587 2827.5,280C 2833.83,275 2840.17,270 2846.5,265C 2843.6,262.428 2840.43,260.261 2837,258.5C 2828.1,264.702 2818.94,270.535 2809.5,276C 2779.47,291.446 2753.31,286.612 2731,261.5C 2718.19,240.912 2722.69,225.412 2744.5,215C 2762.02,210.12 2777.02,214.286 2789.5,227.5C 2782.69,228.802 2776.02,230.636 2769.5,233C 2761.74,238.538 2760.24,245.372 2765,253.5C 2778.61,267.529 2794.44,271.029 2812.5,264C 2819.05,260.902 2825.05,257.068 2830.5,252.5C 2827.46,249.961 2824.63,247.294 2822,244.5C 2821.36,238.794 2824.03,235.794 2830,235.5C 2831.89,235.796 2833.72,236.296 2835.5,237C 2839.67,240.5 2843.83,244 2848,247.5C 2873.08,227.713 2898.24,208.046 2923.5,188.5C 2898.24,168.954 2873.08,149.287 2848,129.5C 2843.17,133 2838.33,136.5 2833.5,140C 2825.93,141.826 2822.1,138.992 2822,131.5C 2824.66,128.678 2827.49,126.012 2830.5,123.5C 2820.7,115.767 2809.7,110.434 2797.5,107.5C 2788.16,108.224 2779.49,111.057 2771.5,116C 2757.69,126.832 2758.35,136.499 2773.5,145C 2778.52,146.104 2783.52,147.271 2788.5,148.5C 2775.32,163.627 2759.32,167.46 2740.5,160C 2725.29,152.05 2720.46,139.883 2726,123.5C 2740.45,98.6942 2761.95,88.5275 2790.5,93C 2807.56,98.7763 2823.06,107.276 2837,118.5C 2840.17,116 2843.33,113.5 2846.5,111C 2833.59,100.098 2819.59,90.7643 2804.5,83C 2798.95,80.9266 2793.28,79.2599 2787.5,78C 2775.74,77.2924 2764.08,75.959 2752.5,74C 2747.06,72.1117 2742.06,69.445 2737.5,66C 2735.04,62.9508 2733.54,59.4508 2733,55.5C 2732.67,48.5 2732.33,41.5 2732,34.5C 2731.49,32.1218 2730.82,29.7885 2730,27.5C 2725.41,17.7708 2720.25,8.43749 2714.5,-0.5 Z"></path>
  </g>
  <g>
    <path style="opacity:0.963" fill="#000000" d="M 3258.5,-0.5 C 3259.5,-0.5 3260.5,-0.5 3261.5,-0.5C 3284.29,11.4131 3308.62,16.2464 3334.5,14C 3343.71,16.2064 3350.21,21.7064 3354,30.5C 3355.9,39.0627 3357.23,47.7294 3358,56.5C 3361.7,66.7237 3367.53,75.557 3375.5,83C 3383.91,89.9534 3392.41,96.7867 3401,103.5C 3403.04,101.126 3405.37,99.1255 3408,97.5C 3408.67,96.8333 3408.67,96.1667 3408,95.5C 3397.25,86.7571 3387.92,76.7571 3380,65.5C 3373.88,54.3331 3374.21,43.3331 3381,32.5C 3400.55,6.98051 3425.05,0.48051 3454.5,13C 3470.06,25.9259 3470.39,39.2592 3455.5,53C 3452.92,55.207 3450.09,57.0404 3447,58.5C 3444.97,42.7992 3436.14,35.6325 3420.5,37C 3406.2,40.9683 3397.87,50.3016 3395.5,65C 3400.07,75.5734 3406.91,84.4067 3416,91.5C 3418.54,88.628 3421.37,86.128 3424.5,84C 3428.45,83.0885 3432.12,83.7552 3435.5,86C 3437.28,88.2431 3437.78,90.7431 3437,93.5C 3432.5,97.3333 3428,101.167 3423.5,105C 3448.34,124.514 3473.18,144.014 3498,163.5C 3522.82,144.014 3547.66,124.514 3572.5,105C 3568,101.167 3563.5,97.3333 3559,93.5C 3556.91,87.0595 3559.41,83.7262 3566.5,83.5C 3571.8,84.2759 3575.96,86.9426 3579,91.5C 3586.73,85.3672 3593.06,78.0338 3598,69.5C 3598.55,50.5409 3589.38,39.5409 3570.5,36.5C 3556.96,37.5376 3549.46,44.8709 3548,58.5C 3536.91,53.4226 3530.41,44.9226 3528.5,33C 3530.02,20.8047 3536.69,12.8047 3548.5,9C 3573.41,3.19218 3594.58,9.69218 3612,28.5C 3620.23,39.3465 3621.56,51.0132 3616,63.5C 3607.78,75.8916 3597.94,86.8916 3586.5,96.5C 3589.16,98.9923 3592,101.326 3595,103.5C 3608.55,93.5457 3620.89,82.2123 3632,69.5C 3638.59,58.7938 3641.26,47.1272 3640,34.5C 3643.07,22.7663 3650.57,15.9329 3662.5,14C 3687.41,16.1014 3710.74,11.2681 3732.5,-0.5C 3733.83,-0.5 3735.17,-0.5 3736.5,-0.5C 3729.11,9.61702 3723.27,20.617 3719,32.5C 3718.67,40.8333 3718.33,49.1667 3718,57.5C 3717.49,62.0119 3715.33,65.5119 3711.5,68C 3706.62,71.2973 3701.28,73.6306 3695.5,75C 3671.13,73.8017 3648.79,79.8017 3628.5,93C 3620.43,98.6974 3612.76,104.864 3605.5,111.5C 3607.67,114.172 3610.17,116.506 3613,118.5C 3626.35,108.406 3640.85,100.239 3656.5,94C 3687.08,87.5196 3710.25,97.6862 3726,124.5C 3730.63,143.733 3723.47,156.233 3704.5,162C 3687.22,166.35 3672.88,161.683 3661.5,148C 3671.88,148.21 3680.71,144.71 3688,137.5C 3690.53,131.182 3689.53,125.515 3685,120.5C 3671.33,108.614 3656.16,105.78 3639.5,112C 3632.83,115.331 3626.5,119.164 3620.5,123.5C 3623.2,125.942 3626.03,128.276 3629,130.5C 3630.66,133.563 3630.16,136.396 3627.5,139C 3624.3,140.483 3620.96,140.817 3617.5,140C 3612.5,136.5 3607.5,133 3602.5,129.5C 3577.79,149.178 3553.13,168.844 3528.5,188.5C 3553.13,208.156 3577.79,227.822 3602.5,247.5C 3607.41,243.085 3612.75,239.252 3618.5,236C 3626.24,234.743 3629.74,237.909 3629,245.5C 3626.93,248.07 3624.43,250.07 3621.5,251.5C 3620.48,252.002 3620.31,252.668 3621,253.5C 3629.81,260.323 3639.65,265.156 3650.5,268C 3662.3,268.287 3672.97,264.954 3682.5,258C 3693.82,244.294 3690.82,234.961 3673.5,230C 3669.5,229.333 3665.5,228.667 3661.5,228C 3679.75,209.396 3699.42,207.729 3720.5,223C 3728.01,232.542 3729.51,243.042 3725,254.5C 3702.62,285.884 3674.12,292.718 3639.5,275C 3630.66,269.75 3622,264.25 3613.5,258.5C 3610.22,260.117 3607.55,262.45 3605.5,265.5C 3617.45,276.142 3630.45,285.309 3644.5,293C 3660.21,299.292 3676.54,301.959 3693.5,301C 3702.41,302.185 3709.91,306.018 3716,312.5C 3716.67,314.5 3717.33,316.5 3718,318.5C 3718.33,326.833 3718.67,335.167 3719,343.5C 3723.11,355.725 3729.28,366.725 3737.5,376.5C 3736.17,376.5 3734.83,376.5 3733.5,376.5C 3710.34,364.703 3685.68,359.869 3659.5,362C 3650.8,359.632 3644.96,354.132 3642,345.5C 3640.01,338.66 3639.01,331.66 3639,324.5C 3635.76,310.857 3628.59,299.691 3617.5,291C 3610,284.833 3602.5,278.667 3595,272.5C 3591.83,275 3588.67,277.5 3585.5,280C 3599.58,289.741 3610.41,302.241 3618,317.5C 3620.56,326.581 3619.56,335.247 3615,343.5C 3597.44,366.873 3574.6,374.706 3546.5,367C 3530.63,359.453 3525.8,347.62 3532,331.5C 3536.32,325.675 3541.65,321.008 3548,317.5C 3551.53,338.016 3563.03,344.516 3582.5,337C 3591.88,331.445 3597.55,323.279 3599.5,312.5C 3598.68,308.529 3597.18,304.862 3595,301.5C 3590.24,295.646 3585.24,289.979 3580,284.5C 3577.11,287.361 3573.94,289.861 3570.5,292C 3562.19,293.802 3558.36,290.636 3559,282.5C 3563.5,278.667 3568,274.833 3572.5,271C 3547.64,251.309 3522.64,231.809 3497.5,212.5C 3472.98,232.19 3448.31,251.69 3423.5,271C 3428,274.833 3432.5,278.667 3437,282.5C 3437.29,290.978 3433.12,294.145 3424.5,292C 3421.37,289.872 3418.54,287.372 3416,284.5C 3406.86,291.653 3400.02,300.487 3395.5,311C 3399.64,331.501 3411.97,340.834 3432.5,339C 3441.61,334.865 3446.44,327.698 3447,317.5C 3453.9,321.07 3459.57,326.07 3464,332.5C 3468.84,348.329 3463.67,359.829 3448.5,367C 3420.79,374.406 3398.29,366.573 3381,343.5C 3373.92,328.818 3375.59,315.151 3386,302.5C 3393.53,294.635 3401.36,287.135 3409.5,280C 3406.66,277.819 3403.82,275.653 3401,273.5C 3386.84,282.318 3374.51,293.318 3364,306.5C 3361.43,310.545 3359.43,314.878 3358,319.5C 3357.23,328.271 3355.9,336.937 3354,345.5C 3350.31,353.858 3344.15,359.358 3335.5,362C 3322.46,362.147 3309.46,362.813 3296.5,364C 3284.3,366.962 3272.3,370.295 3260.5,374C 3273.95,357.631 3279.79,338.798 3278,317.5C 3281.84,309.144 3288.34,303.977 3297.5,302C 3308.82,300.94 3320.15,299.94 3331.5,299C 3343.44,296.467 3354.44,291.8 3364.5,285C 3372.98,278.691 3381.31,272.191 3389.5,265.5C 3387.23,261.342 3383.89,259.175 3379.5,259C 3364.95,270.774 3348.62,279.107 3330.5,284C 3303.29,286.814 3283.12,276.314 3270,252.5C 3264.68,232.796 3271.85,219.963 3291.5,214C 3308.16,210.663 3322.16,215.33 3333.5,228C 3325.13,228.505 3317.47,231.005 3310.5,235.5C 3303.7,243.522 3304.37,251.022 3312.5,258C 3325.35,267.698 3339.35,270.031 3354.5,265C 3361.52,261.964 3368.02,258.13 3374,253.5C 3371.91,250.386 3369.24,247.386 3366,244.5C 3365.8,237.376 3369.3,234.542 3376.5,236C 3382.23,239.062 3387.4,242.896 3392,247.5C 3417,227.993 3441.83,208.327 3466.5,188.5C 3441.83,168.673 3417,149.007 3392,129.5C 3386.62,134.601 3380.46,138.268 3373.5,140.5C 3367.32,139.828 3364.82,136.494 3366,130.5C 3368.41,128.38 3370.91,126.38 3373.5,124.5C 3374.52,123.998 3374.69,123.332 3374,122.5C 3364.37,114.936 3353.54,109.936 3341.5,107.5C 3330.05,108.311 3319.88,112.311 3311,119.5C 3303.95,126.528 3303.78,133.695 3310.5,141C 3317.51,145.337 3325.18,147.67 3333.5,148C 3317.92,165.11 3299.92,168.11 3279.5,157C 3267.96,147.255 3265.13,135.421 3271,121.5C 3285.81,98.1087 3306.98,88.6087 3334.5,93C 3351.72,98.7437 3367.39,107.244 3381.5,118.5C 3384.35,115.812 3387.35,113.312 3390.5,111C 3377.59,100.098 3363.59,90.7643 3348.5,83C 3343.07,80.5582 3337.4,78.8915 3331.5,78C 3321.15,77.0698 3310.82,76.0698 3300.5,75C 3289.95,73.4919 3282.45,67.9919 3278,58.5C 3276.88,50.2096 3276.21,41.8763 3276,33.5C 3275.49,31.1218 3274.82,28.7885 3274,26.5C 3269.33,17.1464 3264.16,8.14637 3258.5,-0.5 Z"></path>
  </g>
  <g>
    <path style="opacity:0.963" fill="#000000" d="M 3802.5,-0.5 C 3803.83,-0.5 3805.17,-0.5 3806.5,-0.5C 3829.24,11.6272 3853.57,16.4605 3879.5,14C 3888.15,16.6419 3894.31,22.1419 3898,30.5C 3899.08,38.8063 3900.08,47.1397 3901,55.5C 3905.39,67.5639 3912.55,77.7306 3922.5,86C 3929.67,91.8333 3936.83,97.6667 3944,103.5C 3947.08,101.045 3950.24,98.7113 3953.5,96.5C 3945.51,89.0146 3937.68,81.3479 3930,73.5C 3918.12,58.9873 3917.45,43.9873 3928,28.5C 3949.14,4.93581 3973.64,0.435813 4001.5,15C 4014.03,28.343 4013.37,41.0096 3999.5,53C 3996.92,55.207 3994.09,57.0404 3991,58.5C 3988.53,41.0306 3978.7,34.1972 3961.5,38C 3947.52,43.4745 3940.69,53.6412 3941,68.5C 3945.82,77.3317 3952.16,84.9984 3960,91.5C 3962.59,88.2379 3965.76,85.7379 3969.5,84C 3978.56,82.3919 3982.06,85.8919 3980,94.5C 3975.41,97.8792 3970.91,101.379 3966.5,105C 3991.34,124.514 4016.18,144.014 4041,163.5C 4066.09,144.367 4090.92,124.867 4115.5,105C 4110.71,101.182 4106.21,97.0154 4102,92.5C 4101.24,89.5027 4102.08,87.0027 4104.5,85C 4107.74,83.6323 4111.07,83.2989 4114.5,84C 4117.63,86.128 4120.46,88.628 4123,91.5C 4131.87,85.302 4138.53,77.302 4143,67.5C 4142.11,51.5904 4133.95,41.4237 4118.5,37C 4102.83,35.6686 4093.99,42.8353 4092,58.5C 4085.1,54.9301 4079.43,49.9301 4075,43.5C 4070.48,28.0314 4075.65,16.8648 4090.5,10C 4117.69,2.50711 4140.19,9.67377 4158,31.5C 4163.4,40.2668 4164.74,49.6001 4162,59.5C 4154.23,73.6138 4143.89,85.6138 4131,95.5C 4130.33,96.1667 4130.33,96.8333 4131,97.5C 4133.67,99.5 4136.33,101.5 4139,103.5C 4153.03,93.6472 4165.36,81.9806 4176,68.5C 4178.84,63.8281 4180.84,58.8281 4182,53.5C 4180.63,39.6105 4184.79,27.7772 4194.5,18C 4198.23,15.8673 4202.23,14.5339 4206.5,14C 4231.71,15.9927 4255.37,11.1594 4277.5,-0.5C 4278.5,-0.5 4279.5,-0.5 4280.5,-0.5C 4280.5,0.166667 4280.5,0.833333 4280.5,1.5C 4265.86,17.5856 4259.69,36.5856 4262,58.5C 4261.24,61.1959 4260.07,63.6959 4258.5,66C 4253.94,69.445 4248.94,72.1117 4243.5,74C 4231.59,75.9613 4219.59,77.2947 4207.5,78C 4194.26,80.6326 4182.26,85.9659 4171.5,94C 4163.8,99.5216 4156.47,105.522 4149.5,112C 4152.33,114.167 4155.17,116.333 4158,118.5C 4171.95,107.271 4187.45,98.7715 4204.5,93C 4232.59,88.6285 4254.09,98.4619 4269,122.5C 4274.6,139.121 4269.77,151.621 4254.5,160C 4235.67,167.457 4219.67,163.624 4206.5,148.5C 4213.84,147.399 4220.84,145.232 4227.5,142C 4236.27,131.921 4234.93,123.254 4223.5,116C 4210.69,107.562 4197.36,106.228 4183.5,112C 4176.83,115.331 4170.5,119.164 4164.5,123.5C 4167.61,125.475 4170.44,127.808 4173,130.5C 4173.99,139.121 4170.15,142.288 4161.5,140C 4156.67,136.5 4151.83,133 4147,129.5C 4122.02,148.976 4097.19,168.643 4072.5,188.5C 4097.19,208.357 4122.02,228.024 4147,247.5C 4151.9,243.301 4157.07,239.468 4162.5,236C 4170.24,234.743 4173.74,237.909 4173,245.5C 4170.3,248.108 4167.47,250.608 4164.5,253C 4173.39,260.114 4183.39,265.114 4194.5,268C 4205.75,268.25 4216.09,265.25 4225.5,259C 4235.79,251.025 4236.45,242.692 4227.5,234C 4220.82,230.777 4213.82,228.61 4206.5,227.5C 4221.92,211.066 4239.59,208.232 4259.5,219C 4271.04,227.607 4274.54,238.773 4270,252.5C 4252.25,281.643 4227.08,290.81 4194.5,280C 4181.56,274.045 4169.4,266.878 4158,258.5C 4154.61,259.886 4151.78,262.052 4149.5,265C 4162.52,277.345 4177.19,287.345 4193.5,295C 4198.08,296.644 4202.74,297.978 4207.5,299C 4219.18,299.909 4230.85,300.909 4242.5,302C 4251.66,303.977 4258.16,309.144 4262,317.5C 4259.69,339.414 4265.86,358.414 4280.5,374.5C 4280.5,375.167 4280.5,375.833 4280.5,376.5C 4279.17,376.5 4277.83,376.5 4276.5,376.5C 4253.72,364.588 4229.39,359.755 4203.5,362C 4194.46,359.296 4188.29,353.463 4185,344.5C 4185.87,327.972 4181.21,313.305 4171,300.5C 4161.2,290.359 4150.53,281.359 4139,273.5C 4135.76,274.902 4132.93,276.902 4130.5,279.5C 4136.53,285.606 4142.69,291.606 4149,297.5C 4169.05,318.238 4168.22,338.072 4146.5,357C 4130.66,369.369 4112.99,373.036 4093.5,368C 4077.11,361.715 4070.95,350.215 4075,333.5C 4079.71,327.124 4085.38,321.791 4092,317.5C 4094.26,334.525 4103.76,341.691 4120.5,339C 4134.51,334.009 4142.01,324.175 4143,309.5C 4138.58,299.904 4132.08,291.904 4123.5,285.5C 4120.36,287.473 4117.36,289.64 4114.5,292C 4105.85,294.288 4102.01,291.121 4103,282.5C 4107.5,278.667 4112,274.833 4116.5,271C 4091.64,251.309 4066.64,231.809 4041.5,212.5C 4016.36,231.809 3991.36,251.309 3966.5,271C 3971.02,275.022 3975.69,278.856 3980.5,282.5C 3982.55,287.108 3981.21,290.274 3976.5,292C 3973.83,292.667 3971.17,292.667 3968.5,292C 3965.37,289.872 3962.54,287.372 3960,284.5C 3952.16,291.002 3945.82,298.668 3941,307.5C 3941.29,326.302 3950.79,337.302 3969.5,340.5C 3983,338.836 3990.16,331.169 3991,317.5C 3997.9,321.07 4003.57,326.07 4008,332.5C 4013.11,344.836 4010.28,355.002 3999.5,363C 3981.08,373.094 3962.75,372.761 3944.5,362C 3933.04,355.879 3925.21,346.713 3921,334.5C 3919.4,325.646 3920.74,317.313 3925,309.5C 3933.46,298.702 3942.96,288.869 3953.5,280C 3950.75,277.21 3947.58,275.043 3944,273.5C 3935.89,279.272 3928.06,285.438 3920.5,292C 3911.38,299.746 3904.88,309.246 3901,320.5C 3899.92,327.791 3899.25,335.124 3899,342.5C 3896.57,352.593 3890.41,359.093 3880.5,362C 3867.13,362.168 3853.8,362.834 3840.5,364C 3828.29,366.964 3816.29,370.297 3804.5,374C 3813.54,363.077 3819.21,350.577 3821.5,336.5C 3819.62,327.857 3820.45,319.523 3824,311.5C 3830.15,306.01 3837.31,302.51 3845.5,301C 3869.81,303.079 3891.81,297.079 3911.5,283C 3919.35,277.241 3927.01,271.241 3934.5,265C 3931.37,262.872 3928.54,260.372 3926,257.5C 3913.86,266.958 3900.69,274.791 3886.5,281C 3859.11,289.313 3836.27,282.479 3818,260.5C 3805.26,238.061 3811.09,222.561 3835.5,214C 3852.3,210.265 3866.3,214.932 3877.5,228C 3869.3,228.633 3861.63,230.966 3854.5,235C 3847.71,242.549 3848.05,249.882 3855.5,257C 3867.76,266.817 3881.43,269.817 3896.5,266C 3904.65,262.426 3912.32,258.093 3919.5,253C 3916.33,250.5 3913.17,248 3910,245.5C 3908.89,239.268 3911.56,235.935 3918,235.5C 3919.89,235.796 3921.72,236.296 3923.5,237C 3927.69,240.69 3932.02,244.19 3936.5,247.5C 3961.21,227.822 3985.87,208.156 4010.5,188.5C 3986.21,169.011 3961.87,149.511 3937.5,130C 3936.83,129.333 3936.17,129.333 3935.5,130C 3931.19,133.824 3926.52,137.157 3921.5,140C 3913.94,141.754 3910.11,138.92 3910,131.5C 3912.02,128.48 3914.69,126.146 3918,124.5C 3918.67,123.833 3918.67,123.167 3918,122.5C 3908.47,115.068 3897.8,110.068 3886,107.5C 3872.49,108.257 3861.15,113.59 3852,123.5C 3847.58,133.835 3850.74,141.002 3861.5,145C 3866.76,146.385 3872.09,147.385 3877.5,148C 3865.19,162.655 3849.86,166.988 3831.5,161C 3810.26,150.925 3805.76,135.758 3818,115.5C 3843.62,88.5075 3872.45,84.6742 3904.5,104C 3911.93,108.462 3919.09,113.295 3926,118.5C 3929.11,116.353 3931.95,113.853 3934.5,111C 3920.69,99.5884 3905.69,89.9218 3889.5,82C 3884.92,80.3557 3880.26,79.0224 3875.5,78C 3865.15,77.1104 3854.81,76.1104 3844.5,75C 3824.15,71.4905 3816.49,59.6571 3821.5,39.5C 3820.65,34.7538 3819.48,30.0871 3818,25.5C 3813.4,16.4239 3808.24,7.75719 3802.5,-0.5 Z"></path>
  </g>
</svg>
