<svg width="1920" height="1080" viewBox="0 0 1920 1080" fill="none" xmlns="http://www.w3.org/2000/svg">
<path d="M655.93 430.546L655.435 430.615L655.505 431.111L674.572 566.777L674.641 567.272L675.136 567.203L733.553 558.993L857.29 630.432L857.723 630.682L857.973 630.249L926.473 511.604L926.723 511.171L926.29 510.921L803.155 439.829L799.094 410.93L799.024 410.435L798.529 410.505L655.93 430.546ZM857.357 629.316L735.162 558.767L817.735 547.162L818.23 547.092L818.16 546.597L803.332 441.085L925.357 511.537L857.357 629.316ZM802.056 439.194L801.583 438.921L801.15 438.671L800.9 439.104L732.4 557.749L732.151 558.18L675.492 566.143L656.565 431.466L798.173 411.565L802.056 439.194ZM802.233 440.451L817.101 546.241L733.755 557.955L733.516 557.816L801.516 440.037L802.233 440.451ZM1540.93 245.546L1540.44 245.615L1540.5 246.111L1559.57 381.777L1559.64 382.272L1560.14 382.203L1618.55 373.993L1742.29 445.432L1742.72 445.682L1742.97 445.249L1811.47 326.604L1811.72 326.171L1811.29 325.921L1688.16 254.829L1684.09 225.93L1684.02 225.435L1683.53 225.505L1540.93 245.546ZM1742.36 444.316L1620.16 373.767L1702.73 362.162L1703.23 362.092L1703.16 361.597L1688.33 256.085L1810.36 326.537L1742.36 444.316ZM1687.06 254.194L1686.58 253.921L1686.15 253.671L1685.9 254.104L1617.4 372.749L1617.15 373.18L1560.49 381.143L1541.56 246.466L1683.17 226.565L1687.06 254.194ZM1687.23 255.451L1702.1 361.241L1618.76 372.955L1618.52 372.816L1686.52 255.037L1687.23 255.451ZM0.5 0.5H1919.5V1079.5H0.5V0.5ZM338.5 381C338.5 415.518 310.518 443.5 276 443.5C241.482 443.5 213.5 415.518 213.5 381C213.5 346.482 241.482 318.5 276 318.5C310.518 318.5 338.5 346.482 338.5 381ZM276 444.5C311.07 444.5 339.5 416.07 339.5 381C339.5 345.93 311.07 317.5 276 317.5C240.93 317.5 212.5 345.93 212.5 381C212.5 416.07 240.93 444.5 276 444.5ZM320.5 381.5C320.5 405.801 300.801 425.5 276.5 425.5C252.199 425.5 232.5 405.801 232.5 381.5C232.5 357.199 252.199 337.5 276.5 337.5C300.801 337.5 320.5 357.199 320.5 381.5ZM276.5 426.5C301.353 426.5 321.5 406.353 321.5 381.5C321.5 356.647 301.353 336.5 276.5 336.5C251.647 336.5 231.5 356.647 231.5 381.5C231.5 406.353 251.647 426.5 276.5 426.5ZM305.5 381.5C305.5 397.516 292.516 410.5 276.5 410.5C260.484 410.5 247.5 397.516 247.5 381.5C247.5 365.484 260.484 352.5 276.5 352.5C292.516 352.5 305.5 365.484 305.5 381.5ZM276.5 411.5C293.069 411.5 306.5 398.069 306.5 381.5C306.5 364.931 293.069 351.5 276.5 351.5C259.931 351.5 246.5 364.931 246.5 381.5C246.5 398.069 259.931 411.5 276.5 411.5ZM1693.5 873C1693.5 907.518 1665.52 935.5 1631 935.5C1596.48 935.5 1568.5 907.518 1568.5 873C1568.5 838.482 1596.48 810.5 1631 810.5C1665.52 810.5 1693.5 838.482 1693.5 873ZM1631 936.5C1666.07 936.5 1694.5 908.07 1694.5 873C1694.5 837.93 1666.07 809.5 1631 809.5C1595.93 809.5 1567.5 837.93 1567.5 873C1567.5 908.07 1595.93 936.5 1631 936.5ZM1675.5 873.5C1675.5 897.801 1655.8 917.5 1631.5 917.5C1607.2 917.5 1587.5 897.801 1587.5 873.5C1587.5 849.199 1607.2 829.5 1631.5 829.5C1655.8 829.5 1675.5 849.199 1675.5 873.5ZM1631.5 918.5C1656.35 918.5 1676.5 898.353 1676.5 873.5C1676.5 848.647 1656.35 828.5 1631.5 828.5C1606.65 828.5 1586.5 848.647 1586.5 873.5C1586.5 898.353 1606.65 918.5 1631.5 918.5ZM1660.5 873.5C1660.5 889.516 1647.52 902.5 1631.5 902.5C1615.48 902.5 1602.5 889.516 1602.5 873.5C1602.5 857.484 1615.48 844.5 1631.5 844.5C1647.52 844.5 1660.5 857.484 1660.5 873.5ZM1631.5 903.5C1648.07 903.5 1661.5 890.069 1661.5 873.5C1661.5 856.931 1648.07 843.5 1631.5 843.5C1614.93 843.5 1601.5 856.931 1601.5 873.5C1601.5 890.069 1614.93 903.5 1631.5 903.5ZM1265.5 255C1265.5 289.518 1237.52 317.5 1203 317.5C1168.48 317.5 1140.5 289.518 1140.5 255C1140.5 220.482 1168.48 192.5 1203 192.5C1237.52 192.5 1265.5 220.482 1265.5 255ZM1203 318.5C1238.07 318.5 1266.5 290.07 1266.5 255C1266.5 219.93 1238.07 191.5 1203 191.5C1167.93 191.5 1139.5 219.93 1139.5 255C1139.5 290.07 1167.93 318.5 1203 318.5ZM1247.5 255.5C1247.5 279.801 1227.8 299.5 1203.5 299.5C1179.2 299.5 1159.5 279.801 1159.5 255.5C1159.5 231.199 1179.2 211.5 1203.5 211.5C1227.8 211.5 1247.5 231.199 1247.5 255.5ZM1203.5 300.5C1228.35 300.5 1248.5 280.353 1248.5 255.5C1248.5 230.647 1228.35 210.5 1203.5 210.5C1178.65 210.5 1158.5 230.647 1158.5 255.5C1158.5 280.353 1178.65 300.5 1203.5 300.5ZM1232.5 255.5C1232.5 271.516 1219.52 284.5 1203.5 284.5C1187.48 284.5 1174.5 271.516 1174.5 255.5C1174.5 239.484 1187.48 226.5 1203.5 226.5C1219.52 226.5 1232.5 239.484 1232.5 255.5ZM1203.5 285.5C1220.07 285.5 1233.5 272.069 1233.5 255.5C1233.5 238.931 1220.07 225.5 1203.5 225.5C1186.93 225.5 1173.5 238.931 1173.5 255.5C1173.5 272.069 1186.93 285.5 1203.5 285.5ZM762.5 907C762.5 941.518 734.518 969.5 700 969.5C665.482 969.5 637.5 941.518 637.5 907C637.5 872.482 665.482 844.5 700 844.5C734.518 844.5 762.5 872.482 762.5 907ZM700 970.5C735.07 970.5 763.5 942.07 763.5 907C763.5 871.93 735.07 843.5 700 843.5C664.93 843.5 636.5 871.93 636.5 907C636.5 942.07 664.93 970.5 700 970.5ZM744.5 907.5C744.5 931.801 724.801 951.5 700.5 951.5C676.199 951.5 656.5 931.801 656.5 907.5C656.5 883.199 676.199 863.5 700.5 863.5C724.801 863.5 744.5 883.199 744.5 907.5ZM700.5 952.5C725.353 952.5 745.5 932.353 745.5 907.5C745.5 882.647 725.353 862.5 700.5 862.5C675.647 862.5 655.5 882.647 655.5 907.5C655.5 932.353 675.647 952.5 700.5 952.5ZM729.5 907.5C729.5 923.516 716.516 936.5 700.5 936.5C684.484 936.5 671.5 923.516 671.5 907.5C671.5 891.484 684.484 878.5 700.5 878.5C716.516 878.5 729.5 891.484 729.5 907.5ZM700.5 937.5C717.069 937.5 730.5 924.069 730.5 907.5C730.5 890.931 717.069 877.5 700.5 877.5C683.931 877.5 670.5 890.931 670.5 907.5C670.5 924.069 683.931 937.5 700.5 937.5Z" stroke="#17844F"/>
</svg>
